<svg xmlns="http://www.w3.org/2000/svg" width="38" height="38" fill="none"><path fill="#3DDC84" d="M0 12.6667c0-4.43378 0-6.65066.862865-8.34412C1.62186 2.83296 2.83296 1.62186 4.32258.862865 6.01604 0 8.23292 0 12.6667 0h12.6666c4.4338 0 6.6507 0 8.3441.862865 1.4896.758995 2.7007 1.970095 3.4597 3.459715C38 6.01604 38 8.23292 38 12.6667v12.6666c0 4.4338 0 6.6507-.8629 8.3441-.759 1.4896-1.9701 2.7007-3.4597 3.4597C31.984 38 29.7671 38 25.3333 38H12.6667c-4.43378 0-6.65066 0-8.34412-.8629-1.48962-.759-2.70072-1.9701-3.459715-3.4597C0 31.984 0 29.7671 0 25.3333V12.6667Z"/><circle cx="19" cy="19" r="11" fill="#fff"/><path fill="#3DDC84" fill-rule="evenodd" d="M15.1538 19c0 2.1242 1.722 3.8462 3.8462 3.8462s3.8462-1.722 3.8462-3.8462H25c0 3.3137-2.6863 6-6 6s-6-2.6863-6-6h2.1538Z" clip-rule="evenodd"/></svg>